<svg xmlns="http://www.w3.org/2000/svg" width="269" height="26" viewBox="0 0 269 26">
  <path fill="#FFFFFF" fill-rule="evenodd" d="M0,1.00329963 C0,0.449192547 0.443864822,0 1,0 C1.55228475,0 2,0.451278687 2,1.00329963 L2,24.9967004 C2,25.5508075 1.55613518,26 1,26 C0.44771525,26 0,25.5487213 0,24.9967004 L0,1.00329963 Z M27,12.007484 C27,11.4510659 27.4438648,11 28,11 C28.5522847,11 29,11.4489202 29,12.007484 L29,24.992516 C29,25.5489341 28.5561352,26 28,26 C27.4477153,26 27,25.5510798 27,24.992516 L27,12.007484 Z M162,12.007484 C162,11.4510659 162.443865,11 163,11 C163.552285,11 164,11.4489202 164,12.007484 L164,24.992516 C164,25.5489341 163.556135,26 163,26 C162.447715,26 162,25.5510798 162,24.992516 L162,12.007484 Z M81,12.007484 C81,11.4510659 81.4438648,11 82,11 C82.5522847,11 83,11.4489202 83,12.007484 L83,24.992516 C83,25.5489341 82.5561352,26 82,26 C81.4477153,26 81,25.5510798 81,24.992516 L81,12.007484 Z M215,12.007484 C215,11.4510659 215.443865,11 216,11 C216.552285,11 217,11.4489202 217,12.007484 L217,24.992516 C217,25.5489341 216.556135,26 216,26 C215.447715,26 215,25.5510798 215,24.992516 L215,12.007484 Z M54,12.007484 C54,11.4510659 54.4438648,11 55,11 C55.5522847,11 56,11.4489202 56,12.007484 L56,24.992516 C56,25.5489341 55.5561352,26 55,26 C54.4477153,26 54,25.5510798 54,24.992516 L54,12.007484 Z M188,12.007484 C188,11.4510659 188.443865,11 189,11 C189.552285,11 190,11.4489202 190,12.007484 L190,24.992516 C190,25.5489341 189.556135,26 189,26 C188.447715,26 188,25.5510798 188,24.992516 L188,12.007484 Z M108,12.007484 C108,11.4510659 108.443865,11 109,11 C109.552285,11 110,11.4489202 110,12.007484 L110,24.992516 C110,25.5489341 109.556135,26 109,26 C108.447715,26 108,25.5510798 108,24.992516 L108,12.007484 Z M242,12.007484 C242,11.4510659 242.443865,11 243,11 C243.552285,11 244,11.4489202 244,12.007484 L244,24.992516 C244,25.5489341 243.556135,26 243,26 C242.447715,26 242,25.5510798 242,24.992516 L242,12.007484 Z M135,3.00069463 C135,2.44802625 135.443865,2 136,2 C136.552285,2 137,2.44746922 137,3.00069463 L137,24.9993054 C137,25.5519738 136.556135,26 136,26 C135.447715,26 135,25.5525308 135,24.9993054 L135,3.00069463 Z"/>
</svg>
